<svg xmlns="http://www.w3.org/2000/svg" viewBox="0 0 294.48 385.87"><title>logo_laisla_01</title><g id="Capa_2" data-name="Capa 2"><g id="Capa_1-2" data-name="Capa 1"><path d="M281.25,354.77H261.12v30c-.78.42-1.05.69-1.34.71-11.39.56-11.39.55-11.39-11,0-20.6-.1-41.19.08-61.79,0-4.71.1-9.83,1.94-14A18.27,18.27,0,0,1,259.2,290a31.37,31.37,0,0,1,25,.18c3.67,1.63,8.62,5.09,8.75,10.4.69,27,1.07,54,1.56,81,0,2.92-1.26,4.23-4.26,4.07-2.81-.15-5.63,0-9,0ZM281,340.65V312c0-10.59-.72-11.33-10.94-11.29-6.76,0-9,2.34-9,9.29q0,10.68,0,21.37v9.27Z"/><path d="M90.74,385.33H79.18V355H59.69v30.22H46.63v-4.7c0-23.94-.13-47.88.13-71.82.05-4.07.87-8.72,3-12,3-4.58,7.75-8.34,13.54-8.42,6.5-.09,13.46-.1,19.38,2.11a12.3,12.3,0,0,1,7.84,11.32c0,16.63.15,33.25.21,49.87C90.77,362.66,90.74,373.78,90.74,385.33Zm-11.56-44.9c0-11.11.11-21.55,0-32-.08-5.57-2.55-7.7-8.18-7.71-1.83,0-3.66.12-5.48,0-3.94-.3-5.78,2.53-5.87,5.4-.36,11.39-.15,22.8-.15,34.33Z"/><path d="M148.6,358.81h12.61v6.52c0,6.65,2.27,8.77,9.5,8.8,6.42,0,10.16-1.79,10.22-8.62.06-6.15.08-12.29,0-18.44-.1-6.57-2-8.27-8.53-8.42-4.41-.1-9,.17-13.17-1-6.81-1.91-10.19-7.78-10.46-14.23A90.23,90.23,0,0,1,150.61,299c1-4.14,5.35-7.78,10.38-9.39a35.14,35.14,0,0,1,22.66.43c3.2,1.11,7.22,4.08,8,7,1.46,5.39.82,11.35,1.05,17.07l-11.32.73c-.17-2.53-.37-4.6-.44-6.68-.17-5.43-2-7.39-7.33-7.36-3.87,0-8.14-1.09-10.83,3.12-.55.86-1.45,1.76-1.48,2.66-.15,5-.55,10,.16,14.91.25,1.69,3.24,3.82,5.29,4.25,5.25,1.11,10.68,1.37,16,2,3.23.39,10.27,7.56,10.3,10.86.13,11.62.2,23.24,0,34.85-.08,5.16-7.42,12-12.64,12.11a157.13,157.13,0,0,1-18.42-.15c-2.43-.23-4.74-2.45-7-4C147.15,375.82,148.52,367.49,148.6,358.81Z"/><path d="M13.51,288.09v6.62c0,24.58.09,49.16-.09,73.73,0,4.29,1.13,6.07,5.61,5.77,4.79-.32,9.65.26,14.43-.16,5-.44,6.56,1.59,5.9,6.23a36.58,36.58,0,0,0,0,4.71,20,20,0,0,1-3.44.65c-10.46.05-20.92-.05-31.38.08-3.23,0-4.51-1.23-4.51-4.38q0-43.83,0-87.67c0-3.66,1.46-6,5.69-5.62C8,288.26,10.32,288.09,13.51,288.09Z"/><path d="M203.75,385.27v-5.58q0-42.37,0-84.76c0-6.31,4.05-9.23,9.7-6.56,1.15.55,1.77,3.29,1.77,5,.12,24.59.08,49.19.08,73.79,0,6.48.44,6.92,7.14,6.94,6,0,11.92,0,18.21,0v11.13Z"/><path d="M139.3,385.25c-12.67,1.39-12.67,1.39-12.67-10.52q0-39.89,0-79.77c0-6.07,6-9.69,11.19-6.49,1.07.66,1.41,3.15,1.41,4.81.09,25.92.06,51.85.06,77.78Z"/><path d="M142.82,0C69.6,0,10,59.57,10,132.79S69.6,265.58,142.82,265.58,275.61,206,275.61,132.79,216,0,142.82,0ZM174,250.53q-5,1.32-10.13,2.23c1.91-4.43,3.48-8.06,5.35-12.38C173.51,245,175.17,248.41,174,250.53Zm71.08-52c-22.36-8.72-43.62-23.4-67.06-28-54,21.84-19-81.29-25.27-106.24C156.28,49.67,117,17.54,113.07,41c-11.16-1.15-5.71,8.06-4.42,14.12,9.71,1,25.53-4.43,26.86,9.7,3.55,28.14-9.56,54.3-9.77,82.23-1.93,23.46,3.31,46.94,16.07,66.57,8.14,13.15.72,25.9,2.64,40.9l-1.63,0a121.62,121.62,0,0,1-23.6-2.3C-1.91,226-12.71,46,118.61,13.63c1.51-.38,3-.72,4.52-1A121.76,121.76,0,0,1,245.38,198.43Z"/></g></g></svg>