<svg xmlns="http://www.w3.org/2000/svg" viewBox="0 0 239.57 303.71"><title>logo_gi_b</title><g id="Capa_2" data-name="Capa 2"><g id="Capa_1-2" data-name="Capa 1"><path d="M88,32.06c1.28,13.86-1.9,28.52,2.19,42,1.09,2.39-2.32,3.63-3.72,5-3.36,2.46-5.79,5.82-8.3,9.07-6.64,8.45-8.2,19.23-9.7,29.36.32,3-.69,6.46.54,9.22.6,1.26.07,3,.38,4.36,2.21,18.84,14.75,35.85,32.91,41.95,1.59.76,1.92,1.58,1.65,3.3-1,12.27-.34,24.67-1.35,37,0,1.67-.83,1.35-2.13,1C80.18,211,61.18,199.76,47.2,184.81,1.47,134.73,22.26,51.52,88,32.06Z"/><path d="M162.79,146c-12.08-.38-24.16-.05-36.25-.17-.27-12.31-1.39-24.61-.93-36.94h90.2c2.05,2.89.52,7.15,1,10.53a155.34,155.34,0,0,1-3.2,25.14c-6.35,29.45-29,54.06-57.14,64.47-5.88,2.08-12,4.34-18.11,5.22-3.06.22-5.75,1.93-8.93,1.39-2.69-11.91-.53-25.73-2.2-38.23-.42-3.19,6.29-2.53,8.48-3.67a48.46,48.46,0,0,1,5.86-2.36C151.6,166.77,161.47,157.29,162.79,146Z"/><path d="M140,34.92c-1.46,14.65,4.49,33.27-6.24,45.05-3.42,4.52-9.91,6.74-11,13.07-1.38,4.55-.84,9.26-.45,13.82.94,8.88-.36,17.94,1,26.7.71,17.33.73,34.81,1.49,52.16.92,9.81,0,19.69.74,29.46.39,4,1.43,8.71-1.39,12-2,4.15-7.13,5.45-11.37,4.77-7.93-2.58-8-10.84-7.32-17.87,1-27.47,1.33-54.88,2.63-82.33.74-6.5.33-13.14.49-19.68.11-7.25,2.13-15.29-1.38-22-3-6.09-10.56-8.13-12.84-14.76-1.54-.49-1-2.19-1.83-3.1a25,25,0,0,1-1.18-5.51c0-21-.1-42-.08-63.07-.84-3.66,4-5,4.73-1.26.08,19,0,37.92,0,56.88a7,7,0,0,0,1.63,5.13c4.48,3.12,9-.54,8.32-5.75q0-27.72,0-55.45c-.18-1.67.52-3.42,2.5-3a2.49,2.49,0,0,1,2.2,2.61q0,25,0,50c.22,4.41-1.61,13.14,5.22,12.55,3.18.39,5-3.2,4.7-6V5.43c.2-1.77-.63-4.5,1.49-5.25,4-1.18,3.2,4,3.23,6.42V59.18c-.19,2.67,1.25,6.27,4.41,6.11,4.6.8,6-3.86,5.52-7.63.45-18.76-.88-37.88.48-56.46,1.51-2.68,4.85-.28,4.23,2.26Q140,19.19,140,34.92Z"/><path d="M211,90.86c-16.81,0-33.57,0-50.37,0-2.12-.31-2.77-3.31-4.19-4.72-1.66-2.66-4.18-4.58-6-7.06-1.86-2.33-8.84-5-8.6-7.63C144.44,57.74,141,43,143.42,29.5,173.94,37.64,202,59.92,211,90.86Z"/><path d="M113.34,44.53c.13-5.53-.27-11.16.16-16.65.71-1.31,2-.67,3-.78.87-.09,1.19.56,1.33,1.28.12,10.47,0,21,.07,31.44a2.08,2.08,0,0,1-1.35,2.2c-5.79,2.36-2.29-14.16-3.19-17.49Z"/><path d="M128,43.89c.7-2.8-1.7-17,1.49-16.49,1.43.29,3.21.11,3,2.11,0,9.41,0,18.82,0,28.23-.29,1.53.19,4.69-2.08,4.56-1.12,0-1.67-.21-1.89-1C127.37,55.58,128.27,49.65,128,43.89Z"/><path d="M102.64,28.58c-.11,4,3.09,35.75-2,33.73-1.92-.09-2-1.87-1.93-3.33q0-13.73,0-27.44C98.16,28.74,100.34,28.44,102.64,28.58Z"/><path d="M20.81,259.89a13.53,13.53,0,0,1,.07,1.4v3.14a16,16,0,0,1-.83,5.28q-.84,2.35-4.39,2.7c-.86.1-1.71.16-2.57.19s-1.73,0-2.61,0c-4,0-6.79-.6-8.27-1.8S0,267.1,0,263.22v-1.74c0-.58,0-1.16,0-1.74V256.3q0-5,1.87-7.12T8.81,247h1.52c.5,0,1,0,1.51,0h1.51c.51,0,1,0,1.52,0q3.26.12,4.59,1.78a7.41,7.41,0,0,1,1.35,4.77v.91H18a8.66,8.66,0,0,0-.59-3.52c-.39-.86-1.44-1.33-3.16-1.4-.86,0-1.72-.08-2.59-.1l-2.63,0q-4,0-5,1.23T3,256.45l0,3.25,0,3.59a17.3,17.3,0,0,0,.49,4.26c.33,1.3,1.41,2.09,3.26,2.36.32.06.66.09,1,.12s.67,0,1,0,.66,0,1,0h2.48c2.42,0,4-.28,4.73-.93S18,267,18,264.63v-2.28H10v-2.46Z"/><path d="M26.37,267.08l-1.93,5.33h-3l9.19-25.23h4l9.42,25.23h-3l-2-5.33Zm6.31-17.82-5.56,15.51H38.28Z"/><path d="M61.17,254.1c-.1-1.84-.45-3.07-1.06-3.69s-1.88-.92-3.82-.92H54.93l-1.12,0-1.3.06a15.22,15.22,0,0,0-1.55.22,3.72,3.72,0,0,0-1.25.45,2.2,2.2,0,0,0-.89,1,4.33,4.33,0,0,0-.36,1.31q0,.3-.06.6c0,.2,0,.39,0,.56a6,6,0,0,0,.67,3.16c.44.72,1.46,1.13,3.08,1.23.55.05,1.1.08,1.62.09s1.06,0,1.59,0a21.91,21.91,0,0,1,6.42,1q2.66.88,2.66,5.84a12.89,12.89,0,0,1-.85,4.94q-.85,2.06-4.29,2.4l-1.21.06-1.18,0c-.4,0-.8,0-1.21,0H54.47a18,18,0,0,1-6.5-1q-2.58-1-2.58-5.77v-.3a1.54,1.54,0,0,1,0-.3c0-.1,0-.21,0-.31s0-.2,0-.3l2.72,0c0,2.32.33,3.84,1,4.54s2.12,1.06,4.44,1.06H56a8.39,8.39,0,0,0,4.35-.74c.8-.52,1.21-1.85,1.21-4,0-1.69-.25-2.82-.74-3.38s-1.56-.87-3.2-.95L56.48,261c-.38,0-.76,0-1.14,0a25.54,25.54,0,0,1-6.88-1.1q-2.91-.94-2.91-6,0-4.57,2.34-5.71a14.52,14.52,0,0,1,6.28-1.13l.68,0a19.88,19.88,0,0,1,6.51,1q2.56.93,2.57,5.77v.34Z"/><path d="M76.68,272.41H73.77V249.86H65.56v-2.68H84.77v2.68H76.68Z"/><path d="M87.31,247.18h12c2.63,0,4.52.58,5.7,1.66s1.76,3,1.76,5.68a14,14,0,0,1-.57,4.29q-.57,1.76-3.86,2.37a4,4,0,0,1,3.14,1.45,5.65,5.65,0,0,1,.95,3.39v6.39h-2.92v-5.79c0-1.64-.38-2.77-1.15-3.4a5.65,5.65,0,0,0-3.61-1H90.11v10.14h-2.8Zm11,12.71a7,7,0,0,0,4.16-.89c.86-.62,1.28-1.88,1.28-3.8a9.57,9.57,0,0,0-.68-4.11q-.67-1.38-3.78-1.38H90.11v10.18Z"/><path d="M109.4,260.23v-1.48a29.08,29.08,0,0,1,1-8.45c.7-2.23,3.08-3.35,7.17-3.35l1.25,0a18.43,18.43,0,0,1,7.72,1.33c1.74.86,2.61,3.26,2.61,7.22V260c0,1.5,0,3-.08,4.48-.08,3.08-.71,5.23-1.91,6.45s-3.39,1.83-6.56,1.83H119.5l-.57,0h-.53a12.79,12.79,0,0,1-6.48-1.33c-1.48-.88-2.3-2.92-2.48-6.13,0-.83,0-1.66,0-2.49v-2.5Zm2.91,3.93q.07,3.72,1.16,4.92t4.9,1.21c2.85,0,4.86-.29,6-.89s1.82-2.42,1.89-5.5c0-.68,0-1.37,0-2.06s0-1.4,0-2.1v-4.16q0-4.65-1.65-5.45a14.31,14.31,0,0,0-5.69-.79h-1c-2.22,0-3.71.37-4.48,1s-1.18,2.38-1.23,5.11l-.07,4.62Z"/><path d="M153.93,272.41h-4.62L135.13,249.6v22.81h-2.77V247.18H137l14.18,23v-23h2.77Z"/><path d="M157.14,260.23v-1.48a29.08,29.08,0,0,1,1-8.45c.69-2.23,3.09-3.35,7.17-3.35l1.25,0a18.43,18.43,0,0,1,7.72,1.33c1.74.86,2.61,3.26,2.61,7.22V260c0,1.5,0,3-.08,4.48q-.1,4.62-1.91,6.45t-6.56,1.83h-1.14l-.57,0h-.53a12.79,12.79,0,0,1-6.48-1.33c-1.48-.88-2.3-2.92-2.48-6.13,0-.83,0-1.66,0-2.49v-2.5Zm2.91,3.93q.07,3.72,1.16,4.92t4.9,1.21c2.85,0,4.86-.29,6-.89s1.82-2.42,1.89-5.5c0-.68,0-1.37,0-2.06s0-1.4,0-2.1v-4.16q0-4.65-1.65-5.45a14.31,14.31,0,0,0-5.69-.79h-.95c-2.21,0-3.71.37-4.48,1s-1.18,2.38-1.23,5.11l-.07,4.62Z"/><path d="M207.79,272.41h-2.87V249.22l-9.53,23.19h-2.88l-9.61-23v23h-2.76V247.18H185l8.89,21.6,8.93-21.6h4.95Z"/><path d="M214.3,272.41h-2.87V247.18h2.87Z"/><path d="M221.87,267.08l-1.93,5.33h-3l9.19-25.23h4.05l9.42,25.23h-3l-2-5.33Zm6.31-17.82-5.56,15.51h11.16Z"/><path d="M2.91,303.52H0V278.29H2.91Z"/><path d="M34.2,303.52H29.58L15.4,280.71v22.81H12.63V278.29h4.62l14.19,23v-23H34.2Z"/><path d="M43.88,278.29H55.53c3.79,0,6.27.95,7.46,2.78s1.77,4.51,1.77,8v2.38a25.31,25.31,0,0,1-1.28,8.38c-.86,2.44-3.27,3.65-7.23,3.65H43.88Zm11,22.77c.3,0,.62,0,1,0a7.37,7.37,0,0,0,1-.07,8.37,8.37,0,0,0,2-.4,3.22,3.22,0,0,0,1.57-1.12,5.49,5.49,0,0,0,1-2.08,13.64,13.64,0,0,0,.38-2.53c0-.41,0-.8.06-1.19s0-.78,0-1.16v-1.28c0-1,0-2,0-3a29.23,29.23,0,0,0-.23-3q-.37-2.91-2-3.69a9.72,9.72,0,0,0-4.13-.78H46.68v20.2Z"/><path d="M93.47,278.29V296q0,3.93-1.47,5.73c-1,1.2-2.89,1.85-5.71,1.95l-1.42.05c-.47,0-.94,0-1.42,0a19.39,19.39,0,0,1-7.28-1.11Q73.5,301.48,73.5,296v-17.7h2.88V296c0,2.19.38,3.62,1.15,4.29s2.21,1,4.33,1h2.76c2.25,0,3.81-.26,4.69-.87s1.33-2.06,1.33-4.36V278.29Z"/><path d="M117.69,285.21c-.11-1.84-.46-3.07-1.06-3.68s-1.88-.93-3.82-.93h-1.37l-1.11.06-1.31,0a15.63,15.63,0,0,0-1.55.23,3.89,3.89,0,0,0-1.25.45,2.24,2.24,0,0,0-.89,1,5,5,0,0,0-.36,1.31c0,.2,0,.4,0,.6s0,.39,0,.56a6.12,6.12,0,0,0,.66,3.16c.44.72,1.47,1.13,3.08,1.23.56.05,1.1.08,1.63.1l1.59,0a21.86,21.86,0,0,1,6.41,1q2.67.89,2.67,5.84a13,13,0,0,1-.85,4.94q-.86,2.07-4.3,2.4c-.4,0-.8.05-1.21.06s-.79,0-1.17.06-.81,0-1.21,0H111a18.11,18.11,0,0,1-6.51-1q-2.57-1-2.57-5.77v-.3a1,1,0,0,1,0-.3,1.67,1.67,0,0,1,0-.31c0-.1,0-.2,0-.3l2.72,0c0,2.33.32,3.84,1,4.54s2.13,1.06,4.45,1.06h2.38a8.34,8.34,0,0,0,4.35-.74c.81-.52,1.21-1.85,1.21-4,0-1.7-.24-2.83-.73-3.39s-1.56-.87-3.2-.95l-1.14-.05-1.13,0A25.62,25.62,0,0,1,105,291q-2.91-.94-2.91-6c0-3.06.78-5,2.35-5.72a14.64,14.64,0,0,1,6.28-1.13l.68,0a20.32,20.32,0,0,1,6.5,1c1.72.62,2.58,2.55,2.58,5.77v.34Z"/><path d="M138.11,303.52H135.2V281H127v-2.69h19.22V281h-8.1Z"/><path d="M153.66,278.29h12c2.63,0,4.52.58,5.7,1.67s1.76,3,1.76,5.67a14,14,0,0,1-.57,4.29c-.38,1.18-1.66,2-3.86,2.37a4,4,0,0,1,3.14,1.45,5.65,5.65,0,0,1,.95,3.39v6.39h-2.92v-5.78c0-1.64-.38-2.78-1.15-3.41a5.65,5.65,0,0,0-3.61-.94h-8.59v10.13h-2.8Zm11,12.71a7,7,0,0,0,4.16-.89c.86-.61,1.29-1.88,1.29-3.8a9.68,9.68,0,0,0-.68-4.1c-.46-.92-1.72-1.38-3.79-1.38h-9.19V291Z"/><path d="M185,303.52h-2.88V278.29H185Z"/><path d="M197.5,298.19l-1.93,5.33h-3l9.19-25.23h4l9.42,25.23h-3l-2-5.33Zm6.32-17.82-5.56,15.51h11.16Z"/><path d="M225.72,300.91h12.83v2.61H222.74V278.29h3Z"/></g></g></svg>