<svg xmlns="http://www.w3.org/2000/svg" viewBox="0 0 452.89 252.62"><defs><style>.cls-1{fill:#d03233;}.cls-2{fill:#020304;}</style></defs><title>Recurso 1</title><g id="Capa_2" data-name="Capa 2"><g id="Capa_1-2" data-name="Capa 1"><path class="cls-1" d="M231.66,132.69c-15.3,19.07-33.78,32.26-51.2,6.89-11,24.79-31.78,34.69-39,1.67-2.85-21.25,8.37-41,8.91-61.85-.68-7.59,11.13-11.32,13.29-3,6.48,21.6-13.34,46.25-4.75,66.8C187,126.3,175.4,37.46,223,59.12c9.26,8.73,13,36.6-3.34,37.44-3-1-6.24-6.86-5.57-10.14,2-4.9,5.2-21.52-4.67-15C199,83,196,98.9,193.15,113.69c-3.58,50.56,40.73,3.14,45.2-18.85,7.13-9.83,3.33-64.35,23.51-44.4,2,3.36,3,3.39,5.35.26,15.41-23.61,33.3,5.15,27.07,22.93-1.45,14.55-10.18,29.65-8,43.85,20.26-16.29,25.58-48.12,29.35-73.09-.21-5.46,5.44-10.09,10.35-6,16.07,7.75-17.91,72.72.44,69,21.07-23.09,14.68-59.5,37.14-81.66,14-14.38,33.88,1.82,32.84,18.8,1.53,14.25-14.4,27.19-17,7,6.51-58.39-44.53,57.47-8.71,50.38C394.31,91.55,398.18,63,413.08,45c14.78-16.42,40-5.67,39.78,16,.49,20.5-5.69,38.13-18.66,53.93-33.26,30.84-77.27,52.95-123.21,55.53-46.72,8.88-227.17-7-203.82,73.46-4.42,20.55-52.51,3.53-9.79-39.05C135,166,191.84,161.75,242.88,160.07c48.78-1.59,100.34-2.25,143.79-27.59,86.77-39,57.66-116.4,23.42-61.75C399.77,97,371,143.37,345,104.56c-24.52,52.28-34.44-2.07-41.36,18-9.37,21.3-33.16,14.57-32.8-8.32C269,95.8,282.41,77.44,277.8,59.65c-19,21-22.41,53.5-31,80.16C242.23,150.71,231.49,141.65,231.66,132.69Z"/><path class="cls-1" d="M72.49,96.74c1.78-15.43.21-31,2.32-46.31-.08-4.5-.55-8.71-5.82-5.32-23.83,7.51-34.67,28-47.79,47.09C15.44,97,5,91.37,6.52,83.39c3.92-19.58,19.77-35.71,36.3-45.71,10-6.26,20.64-11.16,32.43-13.2,1.23-.22,2.57-1.9,3.17-3.22,4.9-13.72,13.64-34.5,23.37-9.7,2.64,5.44-9.35,11.34-.1,13.65,63.89,14.19,45,100-10.08,111.93-5.58,6.46-2.54,18.09-5,26.21-2.75,21.24-12.83,45.73-36.19,50.59-50.3,6.2-66.64-75.64-32-102.85,9.42-6.72,18.18,11.67,10.42,18.87-33.88,33.49,15.75,98.22,37.87,38.84.2-6.83,8.17-28.92.8-31.39-12.38-1.61-36.7-19.59-21.41-31.34,4.67-2.08,8.62-1,11,2.54,2,3.71,13.23,16.3,15.15,8,0-6.6,0-13.21,0-19.82ZM90,96.36c1.63,2.14-4.2,24.77,4.26,23,22.72-6.49,41.17-37.32,27-59-3.3-6.24-25.6-26.15-28.47-13.49C91.91,62.11,91.06,77.37,90,96.36Z"/><path class="cls-1" d="M171.34,54C168.2,74.7,146,59,154.91,44.88c2.19-3.21,5.7-2.62,8.88-2.39C170.4,42.72,169.76,50.08,171.34,54Z"/><path class="cls-1" d="M318.56,18.71c.2-12.56,11.66-15.5,16.66-4.94C341.06,29.84,321.13,36.34,318.56,18.71Z"/><path class="cls-2" d="M240.78,213.31l3.37-.9a3.78,3.78,0,0,0,1,2.07,3.72,3.72,0,0,0,3.09.31,4.08,4.08,0,0,0,2.4-1.16,1.91,1.91,0,0,0,.46-1.69,1.67,1.67,0,0,0-.91-1.17,13.42,13.42,0,0,0-2.75-.74,24,24,0,0,1-3.26-.84,4.28,4.28,0,0,1-2.79-3.29,4.81,4.81,0,0,1,.82-4,6.69,6.69,0,0,1,4.29-2.42,7.24,7.24,0,0,1,5,.42,5.39,5.39,0,0,1,2.66,3.43l-3.39.88a2.9,2.9,0,0,0-1.31-1.72,3.48,3.48,0,0,0-2.42-.17,3.43,3.43,0,0,0-2,1,1.66,1.66,0,0,0-.35,1.45,1.56,1.56,0,0,0,.84,1.11,12,12,0,0,0,2.87.81,14.81,14.81,0,0,1,4.26,1.29,4.16,4.16,0,0,1,1.87,2.79,5.18,5.18,0,0,1-1,4.32,7.49,7.49,0,0,1-4.72,2.71,9.55,9.55,0,0,1-4,.07,4.77,4.77,0,0,1-2.77-1.6A6.56,6.56,0,0,1,240.78,213.31Z"/><path class="cls-2" d="M265.2,214l-3.58.76-.05-15.13-5.09,1.09,0-3,13.7-2.91v3l-5,1.07Z"/><path class="cls-2" d="M272.47,212.46l-.07-18.16,12.89-2.74,0,3-9.31,2v4.12l9-1.91v3l-9,1.92-.09,4.95,10.12-2.15v3Z"/><path class="cls-2" d="M299.24,202.76l-6.89,1.46-1.27,4.29-3.68.78,6.13-19.48,4-.84L304,205.75l-3.4.72Zm-1.06-2.8-2.49-6.79L293,201.06Z"/><path class="cls-2" d="M306.17,205.3l-.06-18.16,3.58-.76,0,7.72,6.47-9.1,4.79-1-6.36,8.48,8,9.35-4.05.86-6.05-7.37L309.75,199l0,5.56Z"/><path class="cls-2" d="M340.83,189.81l-6.72,1.43,0,8.11-3.59.76L330.5,182l3.57-.76,0,7,6.72-1.43v-7l3.57-.75.06,18.15-3.58.76Z"/><path class="cls-2" d="M347.71,189.34a12.92,12.92,0,0,1-.23-3.35,12.07,12.07,0,0,1,1-4.36A9.14,9.14,0,0,1,351,178.3a9.37,9.37,0,0,1,4.09-1.89,7.14,7.14,0,0,1,5.64.9,7.38,7.38,0,0,1,3.11,4.89,12,12,0,0,1-.16,5.6,9.83,9.83,0,0,1-2.67,4.7,9.47,9.47,0,0,1-4.72,2.46,7.37,7.37,0,0,1-4.31-.24,6.21,6.21,0,0,1-2.92-2.24A8.55,8.55,0,0,1,347.71,189.34Zm3.52-.82a4.43,4.43,0,0,0,1.73,2.77,3.78,3.78,0,0,0,3.13.6,4.87,4.87,0,0,0,2.58-1.55,7.22,7.22,0,0,0,1.59-3.36,9.31,9.31,0,0,0,.06-4,4.6,4.6,0,0,0-1.78-3,3.8,3.8,0,0,0-3.06-.57,5.07,5.07,0,0,0-3.75,3.35A9.71,9.71,0,0,0,351.23,188.52Z"/><path class="cls-2" d="M366.87,174.22l3.57-.75,0,9.85v2.43a3.17,3.17,0,0,0,.07.57,2.22,2.22,0,0,0,1.11,1.54,3.28,3.28,0,0,0,2.33.21,4.45,4.45,0,0,0,2-.94,3.33,3.33,0,0,0,1-1.73,15.86,15.86,0,0,0,.25-3.46l0-9.92,3.57-.76,0,9.93a19.18,19.18,0,0,1-.47,4.9,6.56,6.56,0,0,1-1.93,3.11,8.27,8.27,0,0,1-4,1.89,6.77,6.77,0,0,1-5-.5,5.05,5.05,0,0,1-2.43-3.48,8.12,8.12,0,0,1-.14-1.08c0-.26,0-1,0-2.24Z"/><path class="cls-2" d="M383.82,182.91l3.36-.9a3.93,3.93,0,0,0,1,2.07,3.74,3.74,0,0,0,3.09.31,4.14,4.14,0,0,0,2.41-1.17,1.92,1.92,0,0,0,.46-1.68,1.67,1.67,0,0,0-.92-1.17,12,12,0,0,0-2.74-.74,24,24,0,0,1-3.26-.84,4.29,4.29,0,0,1-1.79-1.21,4.4,4.4,0,0,1-1-2.08,4.83,4.83,0,0,1,.81-4,6.8,6.8,0,0,1,4.3-2.43,7.24,7.24,0,0,1,5,.43,5.38,5.38,0,0,1,2.65,3.43l-3.39.88a2.86,2.86,0,0,0-1.31-1.72,4.47,4.47,0,0,0-4.42.79,1.7,1.7,0,0,0-.36,1.46,1.62,1.62,0,0,0,.85,1.11,12.38,12.38,0,0,0,2.86.81,14.81,14.81,0,0,1,4.26,1.29,4.13,4.13,0,0,1,1.87,2.79,5.21,5.21,0,0,1-1,4.32,7.51,7.51,0,0,1-4.72,2.7,9.45,9.45,0,0,1-4.05.08,4.77,4.77,0,0,1-2.76-1.6A6.45,6.45,0,0,1,383.82,182.91Z"/><path class="cls-2" d="M400.67,185.21l-.07-18.15,12.89-2.74v3l-9.31,2v4.12l9-1.91,0,3-9,1.92-.09,4.95,10.11-2.15v3Z"/></g></g></svg>