<svg xmlns="http://www.w3.org/2000/svg" viewBox="0 0 411.43 132.94"><defs><style>.cls-1{fill:#ff4a30;}</style></defs><title>logo_gi_01</title><g id="Capa_2" data-name="Capa 2"><g id="Capa_1-2" data-name="Capa 1"><path class="cls-1" d="M37.42,18.36c.73,8-1.09,16.34,1.25,24,.63,1.38-1.32,2.09-2.13,2.89a24.93,24.93,0,0,0-4.75,5.19c-3.81,4.84-4.7,11-5.56,16.82.18,1.73-.4,3.7.31,5.28.34.72,0,1.72.22,2.5,1.26,10.79,8.45,20.54,18.85,24a1.46,1.46,0,0,1,.94,1.89c-.58,7-.19,14.13-.77,21.18,0,1-.47.78-1.22.6-11.61-1.92-22.49-8.34-30.5-16.9C-12.14,77.18-.23,29.51,37.42,18.36Z"/><path class="cls-1" d="M80.27,83.65c-6.92-.22-13.84,0-20.76-.1-.16-7.06-.8-14.1-.53-21.16h51.66c1.18,1.65.3,4.09.56,6a89.61,89.61,0,0,1-1.83,14.4c-3.64,16.87-16.6,31-32.73,36.93a56,56,0,0,1-10.38,3c-1.75.13-3.3,1.11-5.12.8-1.53-6.83-.3-14.74-1.25-21.9-.25-1.83,3.6-1.45,4.85-2.1a27.78,27.78,0,0,1,3.36-1.36C73.86,95.53,79.51,90.1,80.27,83.65Z"/><path class="cls-1" d="M67.19,20c-.84,8.4,2.57,19.06-3.58,25.81-2,2.59-5.67,3.86-6.3,7.48-.79,2.61-.48,5.31-.26,7.92.54,5.09-.2,10.28.6,15.3.41,9.92.42,19.94.86,29.88.52,5.62,0,11.28.42,16.88.22,2.26.82,5-.8,6.84-1.12,2.38-4.08,3.13-6.51,2.74-4.54-1.48-4.61-6.21-4.19-10.24.57-15.73.76-31.44,1.5-47.16.43-3.72.19-7.53.29-11.27.05-4.16,1.21-8.77-.8-12.64-1.71-3.48-6.05-4.65-7.35-8.45-.88-.28-.58-1.26-1-1.78a14.83,14.83,0,0,1-.68-3.15q0-18.06,0-36.13C38.82-.07,41.61-.84,42,1.31c0,10.85,0,21.72,0,32.58a4,4,0,0,0,.93,2.94c2.57,1.79,5.17-.31,4.77-3.3V1.77c-.1-.95.3-2,1.44-1.74a1.43,1.43,0,0,1,1.26,1.49V30.19c.13,2.53-.92,7.52,3,7.19,1.82.22,2.89-1.83,2.69-3.42V3.11c.12-1-.36-2.58.86-3,2.28-.68,1.83,2.26,1.85,3.67V33.9c-.11,1.53.71,3.59,2.52,3.5,2.64.46,3.44-2.21,3.17-4.37.25-10.75-.51-21.7.27-32.34C65.62-.85,67.54.52,67.18,2Q67.19,11,67.19,20Z"/><path class="cls-1" d="M107.87,52.05H79c-1.22-.18-1.59-1.9-2.4-2.71-1-1.52-2.4-2.62-3.45-4s-5.06-2.84-4.92-4.37c1.51-7.85-.49-16.3.93-24C86.66,21.56,102.75,34.32,107.87,52.05Z"/><path class="cls-1" d="M51.94,25.51c.08-3.17-.15-6.39.1-9.54.4-.75,1.12-.38,1.72-.45s.68.32.76.74c.07,6,0,12,0,18a1.2,1.2,0,0,1-.78,1.26c-3.31,1.35-1.31-8.12-1.82-10Z"/><path class="cls-1" d="M60.35,25.14c.4-1.6-1-9.73.85-9.45.82.17,1.84.07,1.73,1.22,0,5.38,0,10.77,0,16.16-.17.88.11,2.69-1.19,2.62-.65,0-1-.12-1.09-.61C60,31.84,60.5,28.44,60.35,25.14Z"/><path class="cls-1" d="M45.82,16.37c-.06,2.29,1.77,20.48-1.16,19.32-1.1,0-1.15-1.07-1.11-1.9q0-7.86,0-15.73C43.25,16.46,44.5,16.29,45.82,16.37Z"/><path class="cls-1" d="M152.16,47a15.81,15.81,0,0,1,.09,1.66v3.72a18.89,18.89,0,0,1-1,6.25q-1,2.8-5.21,3.21c-1,.12-2,.19-3,.22s-2.05,0-3.1,0q-7.17,0-9.79-2.13t-2.63-9V48.92c0-.68,0-1.37,0-2.06V42.78q0-5.87,2.22-8.43c1.48-1.7,4.2-2.55,8.18-2.55h1.79c.6,0,1.2,0,1.8,0l1.79,0c.6,0,1.19,0,1.79,0Q149,32,150.57,34a8.82,8.82,0,0,1,1.59,5.65v1.08h-3.32a10.33,10.33,0,0,0-.69-4.17c-.46-1-1.71-1.57-3.74-1.66-1-.06-2-.1-3.08-.11s-2.07,0-3.11,0q-4.75,0-5.94,1.45T131,43l0,3.86,0,4.26a21,21,0,0,0,.58,5q.58,2.31,3.86,2.8c.39.06.78.11,1.19.14s.8,0,1.19,0,.78,0,1.18,0h2.94q4.31,0,5.6-1.11c.87-.76,1.3-2.56,1.3-5.38V50h-9.5V47Z"/><path class="cls-1" d="M158.75,55.56l-2.28,6.32h-3.59L163.77,32h4.8l11.16,29.9h-3.54l-2.33-6.32Zm7.49-21.12-6.59,18.38h13.22Z"/><path class="cls-1" d="M200,40.18c-.12-2.18-.54-3.64-1.26-4.37s-2.22-1.1-4.53-1.1H192.6l-1.32.07-1.55.06a18.1,18.1,0,0,0-1.84.27,4.82,4.82,0,0,0-1.48.53,2.71,2.71,0,0,0-1,1.2,5.5,5.5,0,0,0-.43,1.56c0,.24-.05.47-.06.71s0,.46,0,.67a7.25,7.25,0,0,0,.79,3.74c.52.85,1.74,1.34,3.65,1.46.66.06,1.3.1,1.93.11s1.26,0,1.88,0a25.54,25.54,0,0,1,7.6,1.15q3.17,1.05,3.16,6.92a15.36,15.36,0,0,1-1,5.85c-.68,1.63-2.37,2.58-5.09,2.85l-1.44.07c-.48,0-.94,0-1.39.06s-1,.05-1.43.05h-1.44a21.46,21.46,0,0,1-7.71-1.19q-3-1.18-3-6.84v-.35a1.49,1.49,0,0,1,0-.36c0-.12,0-.24,0-.36a2.17,2.17,0,0,0,0-.36l3.23-.05q0,4.14,1.14,5.38c.77.84,2.52,1.26,5.27,1.26h2.83q3.72,0,5.15-.88c1-.61,1.44-2.2,1.44-4.75,0-2-.29-3.34-.88-4s-1.84-1-3.79-1.13l-1.34-.07-1.35,0a30.31,30.31,0,0,1-8.16-1.3q-3.45-1.12-3.45-7.08,0-5.43,2.78-6.77a17.24,17.24,0,0,1,7.44-1.35l.81,0a23.77,23.77,0,0,1,7.71,1.14q3,1.1,3.05,6.84v.4Z"/><path class="cls-1" d="M218.38,61.88h-3.45V35.16H205.2V32H228v3.18h-9.59Z"/><path class="cls-1" d="M231,32h14.17c3.1,0,5.35.68,6.74,2S254,37.48,254,40.67a17,17,0,0,1-.67,5.09c-.45,1.39-2,2.33-4.58,2.8a4.7,4.7,0,0,1,3.72,1.73,6.65,6.65,0,0,1,1.12,4v7.58h-3.45V55c0-1.94-.45-3.29-1.37-4a6.66,6.66,0,0,0-4.28-1.13H234.3v12H231ZM244,47c2.28,0,3.92-.32,4.94-1s1.52-2.24,1.52-4.51a11.34,11.34,0,0,0-.81-4.86c-.53-1.09-2-1.64-4.48-1.64H234.3V47Z"/><path class="cls-1" d="M257.16,47.44V45.7a34.38,34.38,0,0,1,1.23-10q1.25-4,8.5-4l1.48-.05c4,0,7.08.56,9.14,1.57s3.1,3.87,3.1,8.57v5.31q0,2.67-.09,5.31c-.09,3.65-.85,6.19-2.27,7.64s-4,2.18-7.77,2.18h-1.35a5.43,5.43,0,0,0-.67-.05h-.63q-5.07,0-7.69-1.57t-2.94-7.26c0-1,0-2,0-3v-3Zm3.45,4.67q.09,4.39,1.37,5.82t5.81,1.44q5.06,0,7.17-1c1.4-.71,2.15-2.88,2.24-6.53,0-.8,0-1.62,0-2.44s0-1.65,0-2.49V41.93q0-5.52-2-6.46c-1.3-.62-3.54-.94-6.74-.94h-1.12q-3.94,0-5.32,1.25t-1.45,6.06l-.09,5.47Z"/><path class="cls-1" d="M309.93,61.88h-5.47l-16.81-27v27h-3.28V32h5.47l16.81,27.3V32h3.28Z"/><path class="cls-1" d="M313.74,47.44V45.7a34.38,34.38,0,0,1,1.23-10q1.23-4,8.5-4l1.48-.05c4,0,7.08.56,9.14,1.57s3.1,3.87,3.1,8.57v5.31q0,2.67-.09,5.31c-.09,3.65-.85,6.19-2.27,7.64s-4,2.18-7.78,2.18h-1.34a5.43,5.43,0,0,0-.67-.05h-.63q-5.07,0-7.69-1.57t-2.94-7.26c0-1,0-2,0-3v-3Zm3.45,4.67q.09,4.39,1.37,5.82c.85,1,2.79,1.44,5.8,1.44q5.07,0,7.18-1c1.4-.71,2.15-2.88,2.24-6.53,0-.8,0-1.62,0-2.44s0-1.65,0-2.49V41.93q0-5.52-1.95-6.46c-1.3-.62-3.55-.94-6.74-.94H324c-2.63,0-4.41.45-5.32,1.25s-1.39,2.82-1.45,6.06l-.09,5.47Z"/><path class="cls-1" d="M373.77,61.88h-3.41V34.4L359.07,61.88h-3.41L344.27,34.67V61.88H341V32h5.78l10.54,25.6L367.9,32h5.87Z"/><path class="cls-1" d="M381.48,61.88h-3.41V32h3.41Z"/><path class="cls-1" d="M390.45,55.56l-2.29,6.32h-3.59L395.47,32h4.8l11.16,29.9h-3.54l-2.33-6.32Zm7.48-21.12-6.59,18.38h13.23Z"/><path class="cls-1" d="M131,98.75h-3.41V68.85H131Z"/><path class="cls-1" d="M168,98.75h-5.47l-16.81-27v27h-3.27V68.85H148l16.81,27.3V68.85H168Z"/><path class="cls-1" d="M179.51,68.85h13.81q6.72,0,8.83,3.29c1.4,2.17,2.11,5.35,2.11,9.53V84.5a29.76,29.76,0,0,1-1.53,9.93q-1.51,4.32-8.56,4.32H179.51Zm13.09,27c.36,0,.74,0,1.14,0a8.73,8.73,0,0,0,1.24-.09,9.42,9.42,0,0,0,2.35-.47A3.76,3.76,0,0,0,199.19,94a6.51,6.51,0,0,0,1.17-2.47,16.8,16.8,0,0,0,.45-3c0-.48.05-1,.06-1.41s0-.92,0-1.37V84.23c0-1.17,0-2.34,0-3.52a34.31,34.31,0,0,0-.27-3.52c-.3-2.3-1.1-3.76-2.42-4.37a11.44,11.44,0,0,0-4.89-.92H182.83V95.84Z"/><path class="cls-1" d="M238.28,68.85V89.79c0,3.1-.58,5.37-1.74,6.79s-3.43,2.19-6.77,2.31l-1.68.06c-.56,0-1.12,0-1.69,0a22.74,22.74,0,0,1-8.63-1.33c-2.1-.88-3.16-3.49-3.16-7.82v-21H218V89.79q0,3.9,1.37,5.08c.91.8,2.62,1.19,5.13,1.19h3.27c2.66,0,4.52-.31,5.56-1s1.57-2.44,1.57-5.17v-21Z"/><path class="cls-1" d="M267,77.05c-.12-2.18-.54-3.63-1.26-4.37s-2.22-1.1-4.52-1.1h-1.62c-.39,0-.83.06-1.32.07l-1.55.07a18.11,18.11,0,0,0-1.84.26,4.58,4.58,0,0,0-1.48.54,2.61,2.61,0,0,0-1,1.2,5.35,5.35,0,0,0-.43,1.55c0,.24,0,.48-.06.71s0,.46,0,.67a7.25,7.25,0,0,0,.79,3.74c.52.85,1.74,1.34,3.65,1.46.66.06,1.3.1,1.93.11s1.26,0,1.88,0a25.87,25.87,0,0,1,7.6,1.15q3.16,1.05,3.16,6.92a15.09,15.09,0,0,1-1,5.85q-1,2.44-5.08,2.85l-1.44.07c-.48,0-.94,0-1.39.07s-1,0-1.43,0H259a21.24,21.24,0,0,1-7.71-1.19q-3-1.18-3.05-6.83v-.36a1.49,1.49,0,0,1,.05-.36c0-.12,0-.24,0-.36a2.17,2.17,0,0,0,0-.36l3.23,0q0,4.13,1.14,5.38c.77.83,2.52,1.25,5.27,1.25h2.83c2.48,0,4.19-.26,5.15-.88s1.44-2.19,1.44-4.75c0-2-.29-3.34-.88-4s-1.84-1-3.79-1.13l-1.34-.07-1.35,0a30.31,30.31,0,0,1-8.16-1.3c-2.3-.74-3.45-3.11-3.45-7.08,0-3.62.93-5.87,2.78-6.77a17.21,17.21,0,0,1,7.44-1.35l.81,0a23.77,23.77,0,0,1,7.71,1.14c2,.74,3.05,3,3.05,6.84v.4Z"/><path class="cls-1" d="M291.19,98.75h-3.45V72H278V68.85h22.77V72h-9.59Z"/><path class="cls-1" d="M309.61,68.85h14.17q4.67,0,6.75,2t2.08,6.73a16.75,16.75,0,0,1-.67,5.09c-.45,1.38-2,2.32-4.57,2.8a4.72,4.72,0,0,1,3.72,1.72,6.65,6.65,0,0,1,1.12,4v7.58h-3.45V91.89c0-1.94-.46-3.28-1.37-4a6.68,6.68,0,0,0-4.28-1.12H312.93v12h-3.32Zm13.05,15.06c2.27,0,3.92-.32,4.93-1s1.53-2.24,1.53-4.51a11.34,11.34,0,0,0-.81-4.86q-.81-1.63-4.48-1.64h-10.9V83.91Z"/><path class="cls-1" d="M346.78,98.75h-3.41V68.85h3.41Z"/><path class="cls-1" d="M361.57,92.43l-2.28,6.32H355.7l10.9-29.9h4.79l11.17,29.9H379l-2.33-6.32Zm7.49-21.12L362.47,89.7H375.7Z"/><path class="cls-1" d="M395,95.66h15.2v3.09H391.48V68.85H395Z"/></g></g></svg>